<svg width="1012" height="387" viewBox="0 0 1012 387" fill="none" xmlns="http://www.w3.org/2000/svg">
<g clip-path="url(#clip0_6379_1832)">
<path d="M278.01 268.9C277.93 267.64 277.87 266.37 277.75 265.11C277.67 264.19 277.54 263.28 277.44 262.37C277.31 261.22 277.2 260.06 277.05 258.91C276.92 257.95 276.75 257 276.6 256.05C276.43 254.97 276.28 253.87 276.08 252.8C275.9 251.81 275.68 250.84 275.48 249.86C275.27 248.83 275.08 247.8 274.85 246.77C274.62 245.75 274.34 244.75 274.09 243.75C273.85 242.78 273.62 241.81 273.36 240.85C273.08 239.82 272.75 238.81 272.45 237.79C272.17 236.87 271.92 235.94 271.62 235.03C271.27 233.96 270.89 232.91 270.52 231.85C270.22 231.01 269.95 230.16 269.64 229.32C269.24 228.23 268.79 227.17 268.36 226.1C268.04 225.31 267.75 224.51 267.42 223.73C266.96 222.64 266.46 221.57 265.97 220.5C265.63 219.75 265.31 219 264.96 218.26C264.44 217.16 263.87 216.08 263.32 214.99C262.97 214.3 262.64 213.6 262.28 212.92C261.69 211.81 261.06 210.72 260.45 209.63C260.26 209.3 260.08 208.96 259.89 208.63C271.82 188.13 278.69 164.32 278.69 138.89C278.69 113.46 271.82 89.64 259.88 69.15C271.6 48.79 278.33 25.19 278.33 0.02C276.2 0.02 274.07 0.07 271.96 0.16C271.22 0.19 270.5 0.26 269.77 0.31C268.4 0.39 267.03 0.47 265.68 0.59C264.75 0.67 263.82 0.8 262.9 0.9C261.76 1.03 260.61 1.13 259.47 1.29C258.5 1.42 257.55 1.6 256.58 1.75C255.5 1.92 254.41 2.07 253.34 2.27C252.34 2.45 251.35 2.68 250.35 2.88C249.33 3.09 248.31 3.28 247.3 3.51C246.3 3.74 245.31 4.01 244.32 4.26C243.34 4.51 242.34 4.74 241.37 5C240.36 5.28 239.36 5.6 238.35 5.9C237.41 6.18 236.47 6.44 235.54 6.74C234.48 7.08 233.44 7.47 232.4 7.83C231.54 8.13 230.68 8.41 229.83 8.73C228.74 9.13 227.68 9.58 226.61 10.01C225.82 10.33 225.02 10.63 224.23 10.96C223.14 11.42 222.08 11.92 221 12.41C220.25 12.75 219.49 13.07 218.75 13.42C217.66 13.94 216.59 14.5 215.51 15.05C214.81 15.41 214.1 15.74 213.4 16.11C212.31 16.69 211.24 17.31 210.17 17.91C209.8 18.12 209.42 18.33 209.04 18.54C209.04 18.54 209.06 18.53 209.07 18.52C188.67 6.76 165.03 0 139.81 0C114.59 0 90.6703 6.84 70.2103 18.74C49.7303 6.84 25.9603 0 0.570312 0C0.570312 2.14 0.620312 4.27 0.710312 6.38C0.730312 6.9 0.790312 7.42 0.820312 7.94C0.910313 9.53 1.00031 11.11 1.14031 12.69C1.22031 13.61 1.35031 14.51 1.45031 15.43C1.58031 16.59 1.69031 17.76 1.85031 18.92C1.98031 19.91 2.16031 20.88 2.32031 21.86C2.49031 22.93 2.64031 24 2.83031 25.06C3.01031 26.05 3.23031 27.03 3.44031 28.01C3.65031 29.04 3.84031 30.08 4.08031 31.1C4.31031 32.11 4.59031 33.11 4.84031 34.11C5.09031 35.09 5.31031 36.07 5.58031 37.04C5.87031 38.11 6.21031 39.16 6.53031 40.21C6.80031 41.1 7.05031 42 7.33031 42.88C7.69031 43.99 8.09031 45.08 8.48031 46.18C8.77031 46.99 9.03031 47.81 9.33031 48.61C9.74031 49.71 10.1903 50.78 10.6303 51.86C10.9503 52.65 11.2403 53.44 11.5703 54.22C12.0503 55.34 12.5703 56.44 13.0703 57.55C13.4003 58.27 13.7003 58.99 14.0403 59.7C14.5803 60.84 15.1703 61.96 15.7403 63.08C16.0803 63.74 16.3903 64.41 16.7403 65.06C17.3403 66.19 17.9803 67.29 18.6103 68.4C18.8703 68.85 19.1203 69.31 19.3803 69.77C7.66031 90.12 0.930313 113.71 0.930313 138.88C0.930313 164.05 7.65031 187.65 19.3703 208.01C7.44031 228.51 0.570312 252.32 0.570312 277.75C2.71031 277.75 4.83031 277.7 6.94031 277.61C7.29031 277.59 7.63031 277.56 7.98031 277.54C9.74031 277.45 11.4903 277.34 13.2303 277.18C14.0703 277.1 14.9003 276.99 15.7403 276.9C16.9803 276.77 18.2203 276.65 19.4503 276.48C20.4103 276.35 21.3603 276.18 22.3203 276.02C23.4103 275.85 24.5003 275.7 25.5803 275.5C26.6003 275.31 27.6003 275.09 28.6103 274.88C29.6103 274.67 30.6203 274.49 31.6203 274.26C32.6703 274.02 33.7003 273.74 34.7303 273.48C35.6703 273.24 36.6203 273.03 37.5503 272.77C38.6003 272.48 39.6303 272.15 40.6703 271.84C41.5803 271.57 42.4903 271.32 43.3903 271.02C44.4603 270.67 45.5203 270.28 46.5803 269.91C47.4203 269.61 48.2803 269.34 49.1103 269.03C50.1803 268.63 51.2303 268.19 52.2803 267.77C53.0903 267.44 53.9103 267.14 54.7103 266.8C55.8103 266.33 56.9003 265.82 57.9903 265.33C58.7203 265 59.4703 264.68 60.2003 264.34C61.3403 263.8 62.4603 263.21 63.5803 262.64C64.2403 262.31 64.9003 261.99 65.5503 261.65C66.6803 261.05 67.7803 260.41 68.8803 259.79C69.3203 259.54 69.7503 259.3 70.1903 259.06C90.6503 270.95 114.42 277.78 139.79 277.78C165.16 277.78 188.64 271.01 209.03 259.25C229.42 271.02 253.07 277.78 278.31 277.78C278.31 275.65 278.26 273.53 278.17 271.43C278.13 270.59 278.05 269.77 278 268.94L278.01 268.9ZM222.71 78.98C207.97 94.45 188.95 105.8 167.54 111.13C172.87 89.71 184.24 70.68 199.72 55.94L199.76 55.97C208.59 62.36 216.32 70.16 222.71 78.98ZM139.8 36.54C153.04 36.54 165.68 39.08 177.29 43.65C177.34 43.6 177.38 43.55 177.43 43.51C177.32 43.63 177.2 43.75 177.08 43.87C176.72 44.26 176.34 44.63 175.98 45.02C174.99 46.09 174.04 47.2 173.09 48.3C172.75 48.69 172.4 49.07 172.07 49.47C171.13 50.59 170.22 51.74 169.31 52.88C168.99 53.28 168.66 53.68 168.34 54.09C167.44 55.26 166.57 56.46 165.7 57.66C165.41 58.06 165.1 58.46 164.82 58.86C163.95 60.09 163.13 61.34 162.3 62.59C162.04 62.99 161.76 63.38 161.5 63.79C160.68 65.06 159.9 66.36 159.13 67.65C158.89 68.06 158.63 68.46 158.39 68.87C157.63 70.17 156.91 71.49 156.19 72.81C155.96 73.24 155.71 73.66 155.48 74.09C154.77 75.43 154.11 76.79 153.44 78.15C153.23 78.58 153 79 152.8 79.44C152.15 80.81 151.54 82.2 150.94 83.59C150.75 84.04 150.54 84.48 150.35 84.93C149.76 86.32 149.22 87.73 148.68 89.14C148.5 89.61 148.3 90.07 148.13 90.54C147.61 91.95 147.13 93.38 146.65 94.81C146.49 95.3 146.31 95.77 146.15 96.26C145.69 97.68 145.28 99.12 144.87 100.56C144.72 101.07 144.56 101.58 144.42 102.1C144.03 103.53 143.68 104.97 143.34 106.42C143.21 106.96 143.06 107.5 142.94 108.04C142.61 109.48 142.33 110.93 142.05 112.39C141.95 112.91 141.83 113.41 141.74 113.93L141.64 114.46C140.12 114.42 138.69 114.36 137.25 114.3C132.43 87.32 119.83 63.03 101.83 43.86C113.58 39.15 126.38 36.53 139.81 36.53L139.8 36.54ZM56.9003 78.91C63.2903 70.08 71.0903 62.35 79.9103 55.96C95.3803 70.7 106.73 89.71 112.06 111.12C90.6403 105.79 71.6203 94.42 56.8703 78.94L56.9003 78.91ZM50.2603 106.41C51.4103 107.37 52.5903 108.3 53.7603 109.23C54.1403 109.53 54.5103 109.84 54.8903 110.14C56.0903 111.06 57.3203 111.95 58.5503 112.83C58.9303 113.1 59.3003 113.39 59.6903 113.67C60.9303 114.54 62.2103 115.38 63.4803 116.21C63.8703 116.47 64.2503 116.73 64.6403 116.99C65.9203 117.81 67.2303 118.59 68.5403 119.37C68.9403 119.61 69.3303 119.86 69.7403 120.1C71.0603 120.87 72.4003 121.6 73.7503 122.32C74.1603 122.54 74.5603 122.78 74.9803 123C76.3403 123.71 77.7203 124.38 79.1003 125.05C79.5203 125.25 79.9303 125.47 80.3503 125.67C81.7403 126.32 83.1403 126.93 84.5503 127.54C84.9903 127.73 85.4103 127.93 85.8503 128.11C87.2603 128.7 88.7003 129.25 90.1303 129.79C90.5803 129.96 91.0203 130.15 91.4803 130.32C92.9103 130.84 94.3503 131.33 95.8003 131.8C96.2803 131.96 96.7503 132.13 97.2303 132.29C98.6803 132.75 100.15 133.17 101.62 133.58C102.11 133.72 102.59 133.88 103.09 134.01C104.55 134.4 106.02 134.75 107.5 135.1C108.02 135.22 108.53 135.36 109.05 135.48C110.51 135.81 111.99 136.09 113.46 136.37C113.97 136.47 114.48 136.59 115 136.68L115.4 136.75C115.37 138.15 115.3 139.58 115.21 141.02C88.1703 145.78 63.8303 158.35 44.6003 176.34C40.0203 164.73 37.4803 152.1 37.4803 138.86C37.4803 125.62 40.0203 112.97 44.6003 101.36C44.5203 101.29 44.4403 101.21 44.3703 101.13C44.4703 101.23 44.5703 101.33 44.6803 101.42C45.0603 101.77 45.4203 102.14 45.8003 102.48C46.8903 103.48 48.0203 104.45 49.1503 105.41C49.5303 105.73 49.8903 106.07 50.2803 106.39L50.2603 106.41ZM48.2403 34.56C43.8003 38.46 39.5803 42.61 35.6703 47.04L35.5103 47.21L35.4803 47.25C32.6503 41.02 30.3503 34.5 28.6703 27.73C35.4503 29.42 41.9903 31.72 48.2403 34.56ZM28.6703 250C30.3503 243.23 32.6503 236.71 35.4803 230.48C39.4303 234.97 43.6603 239.21 48.1603 243.16L48.2003 243.19C41.9703 246.02 35.4403 248.32 28.6703 250ZM89.6203 211.32C87.1903 214.29 84.6203 217.13 81.9103 219.84C81.2503 220.5 80.5703 221.14 79.9003 221.79L79.6303 221.6C70.9003 215.24 63.2503 207.51 56.9103 198.76C71.6503 183.29 90.6703 171.94 112.07 166.61C109.52 176.85 105.59 186.55 100.5 195.49C97.3203 201.08 93.6703 206.37 89.6303 211.32H89.6203ZM139.81 241.2C126.37 241.2 113.55 238.58 101.8 233.87C101.78 233.89 101.76 233.91 101.73 233.94C101.79 233.88 101.84 233.82 101.9 233.77C102.26 233.38 102.64 233.01 103 232.62C103.98 231.55 104.92 230.45 105.87 229.35C106.21 228.95 106.57 228.56 106.92 228.16C107.87 227.02 108.79 225.86 109.71 224.69C110.02 224.3 110.34 223.92 110.64 223.53C111.56 222.34 112.44 221.12 113.32 219.89C113.6 219.5 113.89 219.13 114.17 218.74C115.04 217.5 115.88 216.24 116.71 214.97C116.97 214.58 117.24 214.2 117.5 213.8C118.32 212.52 119.1 211.22 119.88 209.91C120.12 209.51 120.38 209.12 120.61 208.71C121.37 207.41 122.08 206.09 122.8 204.76C123.03 204.33 123.28 203.91 123.51 203.48C124.22 202.13 124.89 200.76 125.56 199.38C125.77 198.96 125.99 198.54 126.19 198.11C126.84 196.73 127.45 195.32 128.06 193.92C128.25 193.48 128.45 193.06 128.64 192.62C129.23 191.22 129.77 189.8 130.31 188.38C130.49 187.92 130.68 187.47 130.85 187C131.37 185.6 131.84 184.18 132.31 182.76C132.48 182.26 132.66 181.77 132.82 181.27C133.28 179.85 133.69 178.4 134.1 176.96C134.25 176.45 134.41 175.94 134.55 175.43C134.94 173.99 135.29 172.53 135.63 171.08C135.76 170.55 135.9 170.02 136.02 169.49C136.34 168.05 136.62 166.59 136.9 165.13C137.01 164.58 137.13 164.04 137.23 163.49L137.27 163.31C138.74 163.33 140.2 163.43 141.66 163.5C146.51 190.56 159.18 214.91 177.27 234.11C165.67 238.69 153.04 241.23 139.8 241.23L139.81 241.2ZM222.67 198.89C216.29 207.69 208.51 215.4 199.71 221.78C184.24 207.04 172.89 188.02 167.56 166.61C188.04 171.71 206.34 182.32 220.8 196.77C221.46 197.43 222.08 198.15 222.73 198.83L222.68 198.89H222.67ZM228.99 171.62C227.86 170.67 226.71 169.75 225.55 168.84C225.16 168.53 224.78 168.21 224.39 167.9C223.2 166.98 221.98 166.09 220.76 165.21C220.38 164.93 220.01 164.64 219.63 164.37C218.4 163.5 217.14 162.66 215.88 161.83C215.49 161.57 215.11 161.3 214.72 161.05C213.45 160.23 212.16 159.45 210.86 158.67C210.46 158.43 210.06 158.17 209.66 157.93C208.35 157.16 207.01 156.43 205.67 155.7C205.26 155.48 204.87 155.24 204.46 155.03C203.12 154.32 201.75 153.64 200.38 152.97C199.96 152.76 199.54 152.54 199.12 152.34C197.74 151.68 196.34 151.07 194.94 150.46C194.51 150.27 194.08 150.07 193.65 149.88C192.25 149.29 190.83 148.74 189.41 148.19C188.96 148.01 188.51 147.82 188.05 147.65C186.63 147.12 185.2 146.64 183.76 146.15C183.28 145.99 182.82 145.81 182.34 145.66C180.91 145.2 179.47 144.78 178.02 144.36C177.52 144.22 177.02 144.05 176.52 143.91C175.08 143.51 173.63 143.16 172.17 142.81C171.64 142.68 171.13 142.54 170.6 142.42C169.16 142.09 167.7 141.8 166.24 141.52C165.72 141.42 165.21 141.3 164.69 141.2L164.3 141.13C164.28 141.13 164.27 141.13 164.25 141.13C164.28 139.61 164.38 138.11 164.46 136.6C191.44 131.69 215.71 118.99 234.84 100.9C239.55 112.65 242.17 125.45 242.17 138.88C242.17 152.31 239.55 165.13 234.85 176.88C234.92 176.94 234.98 177.01 235.05 177.08C234.9 176.94 234.75 176.79 234.6 176.65C234.21 176.29 233.84 175.91 233.45 175.55C232.38 174.56 231.28 173.61 230.17 172.66C229.78 172.32 229.4 171.97 229 171.64L228.99 171.62ZM231.39 243.17C235.83 239.26 240.06 235.11 243.97 230.68L244.14 230.49C244.83 232 245.5 233.53 246.12 235.07C246.6 236.28 247.07 237.49 247.51 238.72C248.84 242.4 249.99 246.16 250.95 250C244.17 248.31 237.63 246.01 231.39 243.17ZM244.12 47.3C240.28 42.93 236.2 38.77 231.84 34.91L231.43 34.54C237.66 31.71 244.18 29.42 250.95 27.73C249.26 34.52 246.96 41.05 244.12 47.3Z" fill="white"/>
<path d="M388.461 87.1603C388.461 108.76 410.061 112.72 445.341 117.04C487.821 122.08 531.381 136.12 531.381 191.2C531.381 231.52 499.341 268.24 437.061 268.24C398.181 268.24 365.421 259.24 339.141 241.24C333.381 237.28 334.101 234.76 337.341 228.64L349.941 207.4C353.181 201.64 356.061 199.84 361.821 203.44C384.861 218.2 410.781 223.96 433.461 223.96C464.061 223.96 481.701 214.96 481.701 193.72C481.701 169.6 459.381 164.2 422.301 159.52C383.061 154.84 338.781 140.08 338.781 88.9603C338.781 56.2003 362.901 8.32031 432.741 8.32031C469.821 8.32031 493.581 18.4003 521.301 35.3203C527.061 38.9203 525.981 41.8003 523.101 47.5603L510.501 68.8003C507.261 74.5603 504.741 76.7203 498.621 73.1203C475.581 57.6403 459.021 52.6003 436.341 52.6003C396.381 52.6003 388.461 70.2403 388.461 87.1603Z" fill="white"/>
<path d="M543.77 20.93C540.17 14.45 541.97 12.29 548.09 12.29H586.97C592.73 12.29 594.53 14.45 598.49 20.93L659.69 126.77L722.33 20.93C725.93 14.09 727.73 12.29 733.49 12.29H771.65C777.77 12.29 779.57 14.45 775.61 20.93L684.53 171.04V255.64C684.53 262.48 682.73 264.28 675.89 264.28H643.85C637.01 264.28 634.85 262.48 634.85 255.64V171.04L543.77 20.93Z" fill="white"/>
<path d="M1003.65 255.64C1005.81 259.96 1002.93 264.28 998.25 264.28H958.29C952.53 264.28 950.73 262.48 947.13 255.64L925.89 212.44H818.61L797.01 255.64C793.77 262.48 791.61 264.28 785.85 264.28H745.89C741.21 264.28 738.69 259.96 740.49 255.64L864.7 15.89C867.58 10.49 868.66 7.25 871.54 7.25H872.62C875.5 7.25 876.58 10.49 879.82 15.89L1003.66 255.64H1003.65ZM871.89 93.29L835.89 168.89H908.61L872.61 93.29H871.89Z" fill="white"/>
<path d="M8.7906 352.069C8.7906 356.619 13.6206 357.649 20.5506 358.529C28.8406 359.549 36.8006 362.129 36.8006 372.199C36.8006 379.679 30.8906 386.549 19.1906 386.549C11.8506 386.549 5.8006 384.849 0.760605 381.379C-0.259395 380.769 -0.119395 380.289 0.350605 379.339L2.4606 375.939C3.0006 374.989 3.4106 374.649 4.4306 375.329C8.7806 378.119 13.8806 379.339 18.5006 379.339C24.4206 379.339 28.8306 377.569 28.8306 372.539C28.8306 367.509 24.2806 366.349 16.6606 365.329C9.2506 364.379 0.820605 361.789 0.820605 352.339C0.820605 346.489 5.17061 337.449 18.3606 337.449C25.3606 337.449 29.8506 339.419 35.0906 342.619C36.0406 343.159 35.9106 343.709 35.4306 344.659L33.3906 347.989C32.8506 348.939 32.3706 349.349 31.4206 348.669C27.0706 345.749 23.4606 344.659 19.0406 344.659C10.5406 344.659 8.77061 348.739 8.77061 352.069H8.7906Z" fill="white"/>
<path d="M92.3316 374.029C93.1516 373.219 93.6216 373.419 94.3716 374.169L97.5016 377.569C98.2516 378.449 98.3816 378.859 97.5716 379.679C93.2216 383.959 86.3516 386.679 79.7616 386.679C66.3716 386.679 55.3516 375.529 55.3516 361.999C55.3516 348.469 66.3716 337.319 79.7616 337.319C86.3616 337.319 93.2216 340.039 97.5716 344.319C98.3216 345.069 98.1816 345.539 97.4316 346.359L94.3016 349.759C93.5516 350.579 93.0816 350.709 92.2616 349.899C89.2716 346.699 84.9816 344.529 79.7516 344.529C70.2316 344.529 63.6416 353.099 63.6416 361.999C63.6416 370.899 70.2316 379.469 79.7516 379.469C84.9916 379.469 89.2716 377.289 92.3316 374.029Z" fill="white"/>
<path d="M150.03 339.629C150.03 338.539 150.37 338.199 151.46 338.199H156.83C157.92 338.199 158.26 338.539 158.26 339.629V384.369C158.26 385.459 157.92 385.799 156.83 385.799H151.46C150.37 385.799 150.03 385.459 150.03 384.369V365.669H127.05V384.369C127.05 385.459 126.71 385.799 125.62 385.799H120.25C119.16 385.799 118.82 385.459 118.82 384.369V339.629C118.82 338.539 119.16 338.199 120.25 338.199H125.62C126.71 338.199 127.05 338.539 127.05 339.629V358.529H150.03V339.629Z" fill="white"/>
<path d="M204.512 337.319C217.902 337.319 228.922 348.469 228.922 361.999C228.922 375.529 217.902 386.679 204.512 386.679C191.122 386.679 180.102 375.529 180.102 361.999C180.102 348.469 191.122 337.319 204.512 337.319ZM204.512 379.469C214.232 379.469 220.632 370.839 220.632 361.999C220.632 353.159 214.242 344.529 204.512 344.529C194.782 344.529 188.402 353.099 188.402 361.999C188.402 370.899 194.992 379.469 204.512 379.469Z" fill="white"/>
<path d="M272.201 337.319C285.591 337.319 296.611 348.469 296.611 361.999C296.611 375.529 285.591 386.679 272.201 386.679C258.811 386.679 247.791 375.529 247.791 361.999C247.791 348.469 258.811 337.319 272.201 337.319ZM272.201 379.469C281.921 379.469 288.321 370.839 288.321 361.999C288.321 353.159 281.931 344.529 272.201 344.529C262.471 344.529 256.091 353.099 256.091 361.999C256.091 370.899 262.681 379.469 272.201 379.469Z" fill="white"/>
<path d="M347.73 378.789C348.82 378.789 349.16 379.059 349.16 380.219V384.369C349.16 385.459 348.82 385.799 347.73 385.799H319.85C318.76 385.799 318.42 385.459 318.42 384.369V339.629C318.42 338.539 318.76 338.199 319.85 338.199H325.22C326.31 338.199 326.65 338.539 326.65 339.629V378.789H347.73Z" fill="white"/>
<path d="M394.661 339.629C394.051 338.539 394.321 338.199 395.341 338.199H401.531C402.481 338.199 402.821 338.539 403.431 339.629L416.081 360.639L428.791 339.629C429.471 338.539 429.741 338.199 430.691 338.199H436.741C437.761 338.199 438.031 338.539 437.421 339.629L420.011 367.849V384.369C420.011 385.459 419.741 385.799 418.581 385.799H413.481C412.391 385.799 412.051 385.459 412.051 384.369V367.849L394.641 339.629H394.661Z" fill="white"/>
<path d="M457.99 385.799C456.83 385.799 456.49 385.459 456.49 384.369V339.629C456.49 338.539 456.9 338.199 457.99 338.199H488.52C489.61 338.199 490.02 338.539 490.02 339.629V343.779C490.02 344.869 489.61 345.279 488.52 345.279H464.72V358.329H487.5C488.65 358.329 488.93 358.599 488.93 359.759V363.909C488.93 364.999 488.66 365.339 487.5 365.339H464.72V378.799H488.52C489.68 378.799 490.02 379.069 490.02 380.229V384.379C490.02 385.469 489.68 385.809 488.52 385.809H457.99V385.799Z" fill="white"/>
<path d="M556.691 384.37C557.031 385.05 556.621 385.8 555.741 385.8H549.481C548.461 385.8 548.121 385.46 547.581 384.37L543.091 375.06H521.671L517.251 384.37C516.641 385.46 516.371 385.8 515.351 385.8H509.031C508.211 385.8 507.811 385.05 508.151 384.37L531.131 338.54C531.601 337.73 531.811 337.18 532.291 337.18H532.491C533.031 337.18 533.171 337.72 533.711 338.54L556.691 384.37ZM532.351 351.12L524.461 368.05H540.371L532.481 351.12H532.341H532.351Z" fill="white"/>
<path d="M600.311 366.149L612.481 383.959C613.231 385.249 612.411 385.799 611.261 385.799H606.231C605.081 385.799 604.401 385.319 603.711 384.369L591.881 366.959H583.921V384.369C583.921 385.529 583.581 385.799 582.491 385.799H577.121C576.031 385.799 575.691 385.529 575.691 384.369V339.629C575.691 338.539 576.031 338.199 577.121 338.199H593.711C601.461 338.199 610.641 341.459 610.641 352.479C610.641 360.299 606.221 364.449 600.311 366.149ZM593.371 360.099C599.761 360.099 602.681 357.379 602.681 352.479C602.681 347.309 599.211 345.069 593.371 345.069H583.921V360.099H593.371Z" fill="white"/>
<path d="M706.72 384.37C707.06 385.05 706.65 385.8 705.77 385.8H699.51C698.49 385.8 698.15 385.46 697.61 384.37L693.12 375.06H671.7L667.28 384.37C666.67 385.46 666.4 385.8 665.38 385.8H659.06C658.24 385.8 657.84 385.05 658.18 384.37L681.16 338.54C681.63 337.73 681.84 337.18 682.32 337.18H682.52C683.06 337.18 683.2 337.72 683.74 338.54L706.72 384.37ZM682.38 351.12L674.49 368.05H690.4L682.51 351.12H682.37H682.38Z" fill="white"/>
<path d="M727.15 385.799C726.06 385.799 725.65 385.529 725.65 384.369V339.629C725.65 338.539 725.99 338.199 727.15 338.199H744.01C751.76 338.199 761.01 341.399 761.01 351.389C761.01 356.829 757.2 359.749 754.28 361.249V361.319C757.34 362.609 762.71 365.739 762.71 372.609C762.71 382.399 754.69 385.799 745.71 385.799H727.15ZM744.42 358.329C749.72 358.329 752.78 355.609 752.78 352.209C752.78 347.309 749.58 345.069 743.67 345.069H733.88V358.329H744.42ZM745.3 378.929C751.76 378.929 754.48 376.479 754.48 371.859C754.48 368.049 751.01 364.929 745.57 364.929H733.87V378.939H745.29L745.3 378.929Z" fill="white"/>
<path d="M809.311 366.149L821.481 383.959C822.231 385.249 821.411 385.799 820.261 385.799H815.231C814.081 385.799 813.401 385.319 812.711 384.369L800.881 366.959H792.921V384.369C792.921 385.529 792.581 385.799 791.491 385.799H786.121C785.031 385.799 784.691 385.529 784.691 384.369V339.629C784.691 338.539 785.031 338.199 786.121 338.199H802.711C810.461 338.199 819.641 341.459 819.641 352.479C819.641 360.299 815.221 364.449 809.311 366.149ZM802.371 360.099C808.761 360.099 811.681 357.379 811.681 352.479C811.681 347.309 808.211 345.069 802.371 345.069H792.921V360.099H802.371Z" fill="white"/>
<path d="M863.371 337.319C876.761 337.319 887.781 348.469 887.781 361.999C887.781 375.529 876.761 386.679 863.371 386.679C849.981 386.679 838.961 375.529 838.961 361.999C838.961 348.469 849.981 337.319 863.371 337.319ZM863.371 379.469C873.091 379.469 879.491 370.839 879.491 361.999C879.491 353.159 873.101 344.529 863.371 344.529C853.641 344.529 847.251 353.099 847.251 361.999C847.251 370.899 853.851 379.469 863.371 379.469Z" fill="white"/>
<path d="M950.14 384.37C950.48 385.05 950.07 385.8 949.19 385.8H942.93C941.91 385.8 941.57 385.46 941.03 384.37L936.54 375.06H915.12L910.7 384.37C910.09 385.46 909.82 385.8 908.8 385.8H902.48C901.66 385.8 901.26 385.05 901.6 384.37L924.58 338.54C925.05 337.73 925.26 337.18 925.74 337.18H925.94C926.48 337.18 926.62 337.72 927.16 338.54L950.14 384.37ZM925.8 351.12L917.91 368.05H933.82L925.93 351.12H925.79H925.8Z" fill="white"/>
<path d="M987.641 338.199C1001.03 338.199 1011.64 348.469 1011.64 361.999C1011.64 375.529 1001.03 385.799 987.641 385.799H970.571C969.481 385.799 969.141 385.459 969.141 384.369V339.629C969.141 338.539 969.481 338.199 970.571 338.199H987.641ZM977.371 345.069V378.929H987.571C997.431 378.929 1003.34 370.839 1003.34 361.999C1003.34 353.159 997.431 345.069 987.571 345.069H977.371Z" fill="white"/>
</g>
<defs>
<clipPath id="clip0_6379_1832">
<rect width="1011.64" height="386.68" fill="white"/>
</clipPath>
</defs>
</svg>
